ffmpeg version n4.3.1-30-g666d2fc6e2 Copyright (c) 2000-2021 the FFmpeg developers
  built with gcc 9.3-win32 (GCC) 20200320
  configuration: --prefix=/ffbuild/prefix --pkg-config-flags=--static --pkg-config=pkg-config --cross-prefix=x86_64-w64-mingw32- --arch=x86_64 --target-os=mingw32 --enable-gpl --enable-version3 --disable-debug --disable-w32threads --enable-pthreads --enable-iconv --enable-zlib --enable-libxml2 --enable-libfreetype --enable-libfribidi --enable-gmp --enable-lzma --enable-fontconfig --enable-opencl --enable-libvmaf --disable-vulkan --enable-libvorbis --enable-amf --enable-libaom --enable-avisynth --enable-libdav1d --enable-libdavs2 --enable-ffnvcodec --enable-cuda-llvm --disable-libglslang --enable-libass --enable-libbluray --enable-libmp3lame --enable-libopus --enable-libtheora --enable-libvpx --enable-libwebp --enable-libmfx --enable-libopencore-amrnb --enable-libopencore-amrwb --enable-libopenjpeg --enable-librav1e --enable-librubberband --enable-schannel --enable-sdl2 --enable-libsoxr --enable-libsrt --enable-libtwolame --enable-libvidstab --enable-libx264 --enable-libx265 --enable-libxavs2 --enable-libxvid --enable-libzimg --extra-cflags=-DLIBTWOLAME_STATIC --extra-cxxflags= --extra-ldflags=-pthread --extra-libs=-lgomp
  libavutil      56. 51.100 / 56. 51.100
  libavcodec     58. 91.100 / 58. 91.100
  libavformat    58. 45.100 / 58. 45.100
  libavdevice    58. 10.100 / 58. 10.100
  libavfilter     7. 85.100 /  7. 85.100
  libswscale      5.  7.100 /  5.  7.100
  libswresample   3.  7.100 /  3.  7.100
  libpostproc    55.  7.100 / 55.  7.100
Splitting the commandline.
Reading option '-v' ... matched as option 'v' (set logging level) with argument 'debug'.
Reading option '-nostdin' ... matched as option 'stdin' (enable or disable interaction on standard input) with argument 0.
Reading option '-progress' ... matched as option 'progress' (write program-readable progress information) with argument 'C:/Users/Leon/AppData/Local/Temp/KritaFFmpegProgress.AYoRwt'.
Reading option '-r' ... matched as option 'r' (set frame rate (Hz value, fraction or abbreviation)) with argument '24'.
Reading option '-start_number' ... matched as AVOption 'start_number' with argument '0'.
Reading option '-i' ... matched as input url with argument 'D:/Projects/Java/Big Data/gamejam_2021/Assets/Sprites/frame%04d.png'.
Reading option '-vf' ... matched as option 'vf' (set video filters) with argument 'palettegen'.
Reading option '-y' ... matched as option 'y' (overwrite output files) with argument '1'.
Reading option 'D:/Projects/Java/Big Data/gamejam_2021/Assets/Sprites/palette.png' ... matched as output url.
Finished splitting the commandline.
Parsing a group of options: global .
Applying option v (set logging level) with argument debug.
Applying option nostdin (enable or disable interaction on standard input) with argument 0.
Applying option progress (write program-readable progress information) with argument C:/Users/Leon/AppData/Local/Temp/KritaFFmpegProgress.AYoRwt.
[file @ 000001bd63e54b80] Setting default whitelist 'file,crypto,data'
Applying option y (overwrite output files) with argument 1.
Successfully parsed a group of options.
Parsing a group of options: input url D:/Projects/Java/Big Data/gamejam_2021/Assets/Sprites/frame%04d.png.
Applying option r (set frame rate (Hz value, fraction or abbreviation)) with argument 24.
Successfully parsed a group of options.
Opening an input file: D:/Projects/Java/Big Data/gamejam_2021/Assets/Sprites/frame%04d.png.
[image2 @ 000001bd63e95800] Opening 'D:/Projects/Java/Big Data/gamejam_2021/Assets/Sprites/frame0000.png' for reading
[file @ 000001bd62349f40] Setting default whitelist 'file,crypto,data'
[AVIOContext @ 000001bd63ea0000] Statistics: 484498 bytes read, 0 seeks
[image2 @ 000001bd63e95800] Opening 'D:/Projects/Java/Big Data/gamejam_2021/Assets/Sprites/frame0001.png' for reading
[file @ 000001bd63f16800] Setting default whitelist 'file,crypto,data'
[AVIOContext @ 000001bd63f16980] Statistics: 484498 bytes read, 0 seeks
[image2 @ 000001bd63e95800] Opening 'D:/Projects/Java/Big Data/gamejam_2021/Assets/Sprites/frame0002.png' for reading
[file @ 000001bd63f168c0] Setting default whitelist 'file,crypto,data'
[AVIOContext @ 000001bd63e9f7c0] Statistics: 484498 bytes read, 0 seeks
[image2 @ 000001bd63e95800] Opening 'D:/Projects/Java/Big Data/gamejam_2021/Assets/Sprites/frame0003.png' for reading
[file @ 000001bd63f168c0] Setting default whitelist 'file,crypto,data'
[AVIOContext @ 000001bd63e9f980] Statistics: 484498 bytes read, 0 seeks
[image2 @ 000001bd63e95800] Opening 'D:/Projects/Java/Big Data/gamejam_2021/Assets/Sprites/frame0004.png' for reading
[file @ 000001bd63f168c0] Setting default whitelist 'file,crypto,data'
[AVIOContext @ 000001bd63e9fb40] Statistics: 484498 bytes read, 0 seeks
[image2 @ 000001bd63e95800] Opening 'D:/Projects/Java/Big Data/gamejam_2021/Assets/Sprites/frame0005.png' for reading
[file @ 000001bd63f168c0] Setting default whitelist 'file,crypto,data'
[AVIOContext @ 000001bd63e9fd00] Statistics: 483878 bytes read, 0 seeks
[image2 @ 000001bd63e95800] Opening 'D:/Projects/Java/Big Data/gamejam_2021/Assets/Sprites/frame0006.png' for reading
[file @ 000001bd63f168c0] Setting default whitelist 'file,crypto,data'
[AVIOContext @ 000001bd63e9fec0] Statistics: 483878 bytes read, 0 seeks
[image2 @ 000001bd63e95800] Opening 'D:/Projects/Java/Big Data/gamejam_2021/Assets/Sprites/frame0007.png' for reading
[file @ 000001bd63e9fec0] Setting default whitelist 'file,crypto,data'
[AVIOContext @ 000001bd6848ce40] Statistics: 483878 bytes read, 0 seeks
[image2 @ 000001bd63e95800] Opening 'D:/Projects/Java/Big Data/gamejam_2021/Assets/Sprites/frame0008.png' for reading
[file @ 000001bd6848ce40] Setting default whitelist 'file,crypto,data'
[AVIOContext @ 000001bd68504240] Statistics: 483878 bytes read, 0 seeks
[image2 @ 000001bd63e95800] Opening 'D:/Projects/Java/Big Data/gamejam_2021/Assets/Sprites/frame0009.png' for reading
[file @ 000001bd68504240] Setting default whitelist 'file,crypto,data'
[AVIOContext @ 000001bd6857a680] Statistics: 483878 bytes read, 0 seeks
[image2 @ 000001bd63e95800] Opening 'D:/Projects/Java/Big Data/gamejam_2021/Assets/Sprites/frame0010.png' for reading
[file @ 000001bd6857a680] Setting default whitelist 'file,crypto,data'
[AVIOContext @ 000001bd685f0a80] Statistics: 483878 bytes read, 0 seeks
[image2 @ 000001bd63e95800] Probe buffer size limit of 5000000 bytes reached
Input #0, image2, from 'D:/Projects/Java/Big Data/gamejam_2021/Assets/Sprites/frame%04d.png':
  Duration: 00:00:00.44, start: 0.000000, bitrate: N/A
    Stream #0:0, 11, 1/25: Video: png, 1 reference frame, rgba(pc), 4167x4167 [SAR 11811:11811 DAR 1:1], 0/1, 25 fps, 25 tbr, 25 tbn, 25 tbc
Successfully opened the file.
Parsing a group of options: output url D:/Projects/Java/Big Data/gamejam_2021/Assets/Sprites/palette.png.
Applying option vf (set video filters) with argument palettegen.
Successfully parsed a group of options.
Opening an output file: D:/Projects/Java/Big Data/gamejam_2021/Assets/Sprites/palette.png.
Successfully opened the file.
detected 8 logical cores
Stream mapping:
  Stream #0:0 -> #0:0 (png (native) -> png (native))
cur_dts is invalid st:0 (0) [init:0 i_done:0 finish:0] (this is harmless if it occurs once at the start per stream)
    Last message repeated 8 times
[graph 0 input from stream 0:0 @ 000001bd63e9fe40] Setting 'video_size' to value '4167x4167'
[graph 0 input from stream 0:0 @ 000001bd63e9fe40] Setting 'pix_fmt' to value '26'
[graph 0 input from stream 0:0 @ 000001bd63e9fe40] Setting 'time_base' to value '1/24'
[graph 0 input from stream 0:0 @ 000001bd63e9fe40] Setting 'pixel_aspect' to value '11811/11811'
[graph 0 input from stream 0:0 @ 000001bd63e9fe40] Setting 'frame_rate' to value '24/1'
[graph 0 input from stream 0:0 @ 000001bd63e9fe40] w:4167 h:4167 pixfmt:rgba tb:1/24 fr:24/1 sar:11811/11811
[format @ 000001bd63e9fc80] Setting 'pix_fmts' to value 'rgb24|rgba|rgb48be|rgba64be|pal8|gray|ya8|gray16be|ya16be|monob'
[auto_scaler_0 @ 000001bd68694d00] Setting 'flags' to value 'bicubic'
[auto_scaler_0 @ 000001bd68694d00] w:iw h:ih flags:'bicubic' interl:0
[Parsed_palettegen_0 @ 000001bd62348a00] auto-inserting filter 'auto_scaler_0' between the filter 'graph 0 input from stream 0:0' and the filter 'Parsed_palettegen_0'
[auto_scaler_1 @ 000001bd686da740] Setting 'flags' to value 'bicubic'
[auto_scaler_1 @ 000001bd686da740] w:iw h:ih flags:'bicubic' interl:0
[format @ 000001bd63e9fc80] auto-inserting filter 'auto_scaler_1' between the filter 'Parsed_palettegen_0' and the filter 'format'
[AVFilterGraph @ 000001bd623498c0] query_formats: 4 queried, 1 merged, 2 already done, 0 delayed
[auto_scaler_1 @ 000001bd686da740] picking rgba out of 10 ref:bgra alpha:1
[swscaler @ 000001bd6878a800] Forcing full internal H chroma due to odd output size
[swscaler @ 000001bd6878a800] Forcing full internal H chroma due to input having non subsampled chroma
[auto_scaler_0 @ 000001bd68694d00] w:4167 h:4167 fmt:rgba sar:11811/11811 -> w:4167 h:4167 fmt:bgra sar:1/1 flags:0x4
[swscaler @ 000001bd7d409180] Forcing full internal H chroma due to input having non subsampled chroma
[auto_scaler_1 @ 000001bd686da740] w:16 h:16 fmt:bgra sar:1/1 -> w:16 h:16 fmt:rgba sar:1/1 flags:0x4
Output #0, image2, to 'D:/Projects/Java/Big Data/gamejam_2021/Assets/Sprites/palette.png':
  Metadata:
    encoder         : Lavf58.45.100
    Stream #0:0, 0, 1/24: Video: png, 1 reference frame, rgba, 16x16 [SAR 1:1 DAR 1:1], 0/1, q=2-31, 200 kb/s, 24 fps, 24 tbn, 24 tbc
    Metadata:
      encoder         : Lavc58.91.100 png
cur_dts is invalid st:0 (0) [init:1 i_done:0 finish:0] (this is harmless if it occurs once at the start per stream)
frame=    0 fps=0.0 q=0.0 size=N/A time=00:00:00.00 bitrate=N/A speed=   0x    cur_dts is invalid st:0 (0) [init:1 i_done:0 finish:0] (this is harmless if it occurs once at the start per stream)
    Last message repeated 3 times
frame=    0 fps=0.0 q=0.0 size=N/A time=00:00:00.00 bitrate=N/A speed=   0x    cur_dts is invalid st:0 (0) [init:1 i_done:0 finish:0] (this is harmless if it occurs once at the start per stream)
    Last message repeated 3 times
frame=    0 fps=0.0 q=0.0 size=N/A time=00:00:00.00 bitrate=N/A speed=   0x    cur_dts is invalid st:0 (0) [init:1 i_done:0 finish:0] (this is harmless if it occurs once at the start per stream)
    Last message repeated 1 times
[Parsed_palettegen_0 @ 000001bd62348a00] 255(+1) colors generated out of 633 colors; ratio=0.402844
[Parsed_palettegen_0 @ 000001bd62348a00] Dupped color: FF283C42
    Last message repeated 1 times
[Parsed_palettegen_0 @ 000001bd62348a00] Dupped color: FF39515C
    Last message repeated 4 times
[Parsed_palettegen_0 @ 000001bd62348a00] Dupped color: FF616160
    Last message repeated 3 times
[Parsed_palettegen_0 @ 000001bd62348a00] Dupped color: FF6E6E6E
    Last message repeated 2 times
[Parsed_palettegen_0 @ 000001bd62348a00] Dupped color: FFE3ECCB
    Last message repeated 6 times
cur_dts is invalid st:0 (0) [init:1 i_done:0 finish:0] (this is harmless if it occurs once at the start per stream)
Clipping frame in rate conversion by 0.000008
cur_dts is invalid st:0 (0) [init:1 i_done:0 finish:0] (this is harmless if it occurs once at the start per stream)
[out_0_0 @ 000001bd63ea0000] EOF on sink link out_0_0:default.
No more output streams to write to, finishing.
[image2 @ 000001bd6837a2c0] Opening 'D:/Projects/Java/Big Data/gamejam_2021/Assets/Sprites/palette.png' for writing
[file @ 000001bd686db140] Setting default whitelist 'file,crypto,data'
[AVIOContext @ 000001bd686d60c0] Statistics: 0 seeks, 1 writeouts
frame=    1 fps=0.4 q=-0.0 Lsize=N/A time=00:00:00.04 bitrate=N/A speed=0.0179x    
[AVIOContext @ 000001bd63e956c0] Statistics: 0 seeks, 4 writeouts
video:1kB audio:0kB subtitle:0kB other streams:0kB global headers:0kB muxing overhead: unknown
Input file #0 (D:/Projects/Java/Big Data/gamejam_2021/Assets/Sprites/frame%04d.png):
  Input stream #0:0 (video): 11 packets read (5325758 bytes); 11 frames decoded; 
  Total: 11 packets (5325758 bytes) demuxed
Output file #0 (D:/Projects/Java/Big Data/gamejam_2021/Assets/Sprites/palette.png):
  Output stream #0:0 (video): 1 frames encoded; 1 packets muxed (937 bytes); 
  Total: 1 packets (937 bytes) muxed
11 frames successfully decoded, 0 decoding errors
